# xmcd
#
# Track frame offsets:
#	150
#	14440
#	27175
#	42502
#	54697
#	67050
#	80773
#	92341
#	106847
#	121476
#	132046
#	147461
#	163978
#	174948
#	185223
#	199168
#	212133
#	222363
#
# Disc length: 3143 seconds
#
# Revision: 2
# Processed by: cddbd v1.5.2PL0 Copyright (c) Steve Scherf et al.
# Submitted via: EasyCDDAExtractor 2010.4.0.0
#
DISCID=120c4512
DTITLE=Various Artist - The Ultimate Blues Album-Disk 1
DYEAR=2003
DGENRE=Blues
TTITLE0=Elmore James - Dust My Blues
TTITLE1=B.B. King - Every Day (I have the Blues)
TTITLE2=Johnny "Guitar" Watson - Three Hours Past Midnight
TTITLE3=Howlin' Wolf - Moanin' At Midnight
TTITLE4=Etta James - W-O-M-A-N
TTITLE5=T-Bone Walker - Call It Stormy Monday (But Tuesday's Just As Bad)
TTITLE6=Lead Belly - Goodnight Irene
TTITLE7=Big Bill Broonzy - Baby Please Don't Go
TTITLE8=Charles Brown - Driftin' Blues
TTITLE9=Jimmy Reed - Baby What You Want Me To Do
TTITLE10=Magic Sam - Easy Baby
TTITLE11=Otis Rush - I Can't Quit You Baby
TTITLE12=Ike Turner - Matchbox
TTITLE13=Koko Taylor - Honky Tonk
TTITLE14=Sonny Boy Williamson - Steady Rollin' Man
TTITLE15=J.B. Lenoir - Mojo Boogie
TTITLE16=Junior Wells - Messin' With The Kid
TTITLE17=Buddy Guy - This Is The End
EXTD=YEAR: 2003
EXTT0=
EXTT1=
EXTT2=
EXTT3=
EXTT4=
EXTT5=
EXTT6=
EXTT7=
EXTT8=
EXTT9=
EXTT10=
EXTT11=
EXTT12=
EXTT13=
EXTT14=
EXTT15=
EXTT16=
EXTT17=
PLAYORDER=
